<mxfile host="app.diagrams.net" modified="2021-09-05T12:21:46.438Z" agent="5.0 (Windows NT 10.0; Win64; x64) AppleWebKit/537.36 (KHTML, like Gecko) Chrome/93.0.4577.63 Safari/537.36" etag="Pc9LRdyD9HEzZwuvImk8" version="15.0.6" type="github">
  <diagram id="xjnpS-0nyy0dC3BiWywQ" name="Страница 1">
    <mxGraphModel dx="1422" dy="737" grid="1" gridSize="10" guides="1" tooltips="1" connect="1" arrows="1" fold="1" page="1" pageScale="1" pageWidth="827" pageHeight="1169" math="0" shadow="0">
      <root>
        <mxCell id="0" />
        <mxCell id="1" parent="0" />
        <mxCell id="GYZ9MLqIJhaxATSJCkpH-49" style="edgeStyle=none;rounded=0;sketch=0;orthogonalLoop=1;jettySize=auto;html=1;shadow=0;dashed=1;fontSize=14;startArrow=open;startFill=0;endArrow=none;endFill=0;strokeWidth=1;" parent="1" edge="1">
          <mxGeometry relative="1" as="geometry">
            <mxPoint x="690" y="510" as="targetPoint" />
            <mxPoint x="690" y="510" as="sourcePoint" />
          </mxGeometry>
        </mxCell>
        <mxCell id="GYZ9MLqIJhaxATSJCkpH-3" value="" style="rounded=0;whiteSpace=wrap;html=1;" parent="1" vertex="1">
          <mxGeometry x="140" y="180" width="550" height="660" as="geometry" />
        </mxCell>
        <mxCell id="GYZ9MLqIJhaxATSJCkpH-5" value="&lt;b&gt;&lt;font style=&quot;font-size: 20px&quot;&gt;System&lt;/font&gt;&lt;/b&gt;" style="text;html=1;align=center;verticalAlign=middle;resizable=0;points=[];autosize=1;strokeColor=none;fillColor=none;" parent="1" vertex="1">
          <mxGeometry x="355" y="150" width="90" height="20" as="geometry" />
        </mxCell>
        <mxCell id="GYZ9MLqIJhaxATSJCkpH-6" value="Admin" style="shape=umlActor;verticalLabelPosition=bottom;verticalAlign=top;html=1;" parent="1" vertex="1">
          <mxGeometry x="40" y="230" width="70" height="100" as="geometry" />
        </mxCell>
        <mxCell id="GYZ9MLqIJhaxATSJCkpH-8" value="Client" style="shape=umlActor;verticalLabelPosition=bottom;verticalAlign=top;html=1;" parent="1" vertex="1">
          <mxGeometry x="20" y="570" width="70" height="100" as="geometry" />
        </mxCell>
        <mxCell id="GYZ9MLqIJhaxATSJCkpH-11" value="Bank" style="shape=umlActor;verticalLabelPosition=bottom;verticalAlign=top;html=1;" parent="1" vertex="1">
          <mxGeometry x="720" y="485" width="70" height="100" as="geometry" />
        </mxCell>
        <mxCell id="GYZ9MLqIJhaxATSJCkpH-14" value="Управление&amp;nbsp;&lt;br&gt;системой" style="ellipse;whiteSpace=wrap;html=1;" parent="1" vertex="1">
          <mxGeometry x="200" y="320" width="140" height="70" as="geometry" />
        </mxCell>
        <mxCell id="GYZ9MLqIJhaxATSJCkpH-34" value="&amp;lt;&amp;lt; include &amp;gt;&amp;gt;" style="edgeStyle=none;rounded=0;sketch=0;orthogonalLoop=1;jettySize=auto;html=1;shadow=0;dashed=1;startArrow=open;startFill=0;endArrow=none;endFill=0;strokeWidth=1;fontSize=14;" parent="1" source="GYZ9MLqIJhaxATSJCkpH-20" target="GYZ9MLqIJhaxATSJCkpH-37" edge="1">
          <mxGeometry x="-0.0665" y="-7" relative="1" as="geometry">
            <mxPoint x="319" y="532.48" as="targetPoint" />
            <mxPoint as="offset" />
          </mxGeometry>
        </mxCell>
        <mxCell id="GYZ9MLqIJhaxATSJCkpH-20" value="Тразакция" style="ellipse;whiteSpace=wrap;html=1;" parent="1" vertex="1">
          <mxGeometry x="330" y="490" width="140" height="70" as="geometry" />
        </mxCell>
        <mxCell id="GYZ9MLqIJhaxATSJCkpH-35" value="&amp;lt;&amp;lt; include &amp;gt;&amp;gt;" style="edgeStyle=none;rounded=0;sketch=0;orthogonalLoop=1;jettySize=auto;html=1;shadow=0;dashed=1;startArrow=open;startFill=0;endArrow=none;endFill=0;strokeWidth=1;fontSize=14;" parent="1" source="GYZ9MLqIJhaxATSJCkpH-36" edge="1">
          <mxGeometry x="-0.0665" y="-7" relative="1" as="geometry">
            <mxPoint x="320" y="330" as="targetPoint" />
            <mxPoint as="offset" />
          </mxGeometry>
        </mxCell>
        <mxCell id="GYZ9MLqIJhaxATSJCkpH-36" value="Администрирование" style="ellipse;whiteSpace=wrap;html=1;" parent="1" vertex="1">
          <mxGeometry x="490" y="190" width="140" height="70" as="geometry" />
        </mxCell>
        <mxCell id="GYZ9MLqIJhaxATSJCkpH-37" value="Логин" style="ellipse;whiteSpace=wrap;html=1;" parent="1" vertex="1">
          <mxGeometry x="150" y="585" width="140" height="70" as="geometry" />
        </mxCell>
        <mxCell id="GYZ9MLqIJhaxATSJCkpH-39" value="&amp;lt;&amp;lt; include &amp;gt;&amp;gt;" style="edgeStyle=none;rounded=0;sketch=0;orthogonalLoop=1;jettySize=auto;html=1;shadow=0;dashed=1;startArrow=open;startFill=0;endArrow=none;endFill=0;strokeWidth=1;fontSize=14;" parent="1" source="GYZ9MLqIJhaxATSJCkpH-40" target="GYZ9MLqIJhaxATSJCkpH-14" edge="1">
          <mxGeometry x="-0.0665" y="-7" relative="1" as="geometry">
            <mxPoint x="160" y="330" as="targetPoint" />
            <mxPoint as="offset" />
          </mxGeometry>
        </mxCell>
        <mxCell id="GYZ9MLqIJhaxATSJCkpH-40" value="Составление отчетов" style="ellipse;whiteSpace=wrap;html=1;" parent="1" vertex="1">
          <mxGeometry x="274" y="190" width="140" height="70" as="geometry" />
        </mxCell>
        <mxCell id="GYZ9MLqIJhaxATSJCkpH-41" value="&amp;lt;&amp;lt; extend &amp;gt;&amp;gt;" style="edgeStyle=none;rounded=0;sketch=0;orthogonalLoop=1;jettySize=auto;html=1;shadow=0;dashed=1;startArrow=open;startFill=0;endArrow=none;endFill=0;strokeWidth=1;fontSize=14;entryX=0.5;entryY=0;entryDx=0;entryDy=0;" parent="1" source="GYZ9MLqIJhaxATSJCkpH-42" target="GYZ9MLqIJhaxATSJCkpH-20" edge="1">
          <mxGeometry x="-0.0665" y="-7" relative="1" as="geometry">
            <mxPoint x="395.16206796384245" y="529.9969076310878" as="targetPoint" />
            <mxPoint as="offset" />
          </mxGeometry>
        </mxCell>
        <mxCell id="GYZ9MLqIJhaxATSJCkpH-42" value="Неверный пароль" style="ellipse;whiteSpace=wrap;html=1;" parent="1" vertex="1">
          <mxGeometry x="390" y="349.99999999999994" width="140" height="70" as="geometry" />
        </mxCell>
        <mxCell id="GYZ9MLqIJhaxATSJCkpH-43" value="Проверка баланса" style="ellipse;whiteSpace=wrap;html=1;" parent="1" vertex="1">
          <mxGeometry x="170" y="740" width="140" height="70" as="geometry" />
        </mxCell>
        <mxCell id="GYZ9MLqIJhaxATSJCkpH-44" value="&amp;lt;&amp;lt; include &amp;gt;&amp;gt;" style="edgeStyle=none;rounded=0;sketch=0;orthogonalLoop=1;jettySize=auto;html=1;shadow=0;dashed=1;startArrow=open;startFill=0;endArrow=none;endFill=0;strokeWidth=1;fontSize=14;exitX=0.5;exitY=1;exitDx=0;exitDy=0;" parent="1" source="GYZ9MLqIJhaxATSJCkpH-20" target="GYZ9MLqIJhaxATSJCkpH-43" edge="1">
          <mxGeometry x="-0.0665" y="-7" relative="1" as="geometry">
            <mxPoint x="265" y="711.31" as="targetPoint" />
            <mxPoint as="offset" />
            <mxPoint x="430.0478096157226" y="640.0027829053815" as="sourcePoint" />
          </mxGeometry>
        </mxCell>
        <mxCell id="GYZ9MLqIJhaxATSJCkpH-45" value="Внести депозит" style="ellipse;whiteSpace=wrap;html=1;" parent="1" vertex="1">
          <mxGeometry x="340" y="760" width="140" height="70" as="geometry" />
        </mxCell>
        <mxCell id="GYZ9MLqIJhaxATSJCkpH-46" value="&amp;lt;&amp;lt; include &amp;gt;&amp;gt;" style="edgeStyle=none;rounded=0;sketch=0;orthogonalLoop=1;jettySize=auto;html=1;shadow=0;dashed=1;startArrow=open;startFill=0;endArrow=none;endFill=0;strokeWidth=1;fontSize=14;" parent="1" source="GYZ9MLqIJhaxATSJCkpH-20" target="GYZ9MLqIJhaxATSJCkpH-45" edge="1">
          <mxGeometry x="-0.0665" y="-7" relative="1" as="geometry">
            <mxPoint x="430" y="711.31" as="targetPoint" />
            <mxPoint as="offset" />
            <mxPoint x="595.0478096157226" y="640.0027829053815" as="sourcePoint" />
          </mxGeometry>
        </mxCell>
        <mxCell id="GYZ9MLqIJhaxATSJCkpH-47" value="Печать чека" style="ellipse;whiteSpace=wrap;html=1;" parent="1" vertex="1">
          <mxGeometry x="530" y="740" width="140" height="70" as="geometry" />
        </mxCell>
        <mxCell id="GYZ9MLqIJhaxATSJCkpH-48" value="&amp;lt;&amp;lt; include &amp;gt;&amp;gt;" style="edgeStyle=none;rounded=0;sketch=0;orthogonalLoop=1;jettySize=auto;html=1;shadow=0;dashed=1;startArrow=open;startFill=0;endArrow=none;endFill=0;strokeWidth=1;fontSize=14;" parent="1" source="GYZ9MLqIJhaxATSJCkpH-20" target="GYZ9MLqIJhaxATSJCkpH-47" edge="1">
          <mxGeometry x="-0.0665" y="-7" relative="1" as="geometry">
            <mxPoint x="574" y="711.31" as="targetPoint" />
            <mxPoint as="offset" />
            <mxPoint x="550.2185588147743" y="599.8616175979787" as="sourcePoint" />
          </mxGeometry>
        </mxCell>
        <mxCell id="GYZ9MLqIJhaxATSJCkpH-50" value="" style="edgeStyle=none;rounded=0;sketch=0;orthogonalLoop=1;jettySize=auto;html=1;shadow=0;startArrow=none;startFill=0;endArrow=none;endFill=0;strokeWidth=1;fontSize=14;entryX=0.914;entryY=0.32;entryDx=0;entryDy=0;entryPerimeter=0;exitX=0;exitY=0.5;exitDx=0;exitDy=0;" parent="1" source="GYZ9MLqIJhaxATSJCkpH-14" target="GYZ9MLqIJhaxATSJCkpH-6" edge="1">
          <mxGeometry x="-0.0665" y="-7" relative="1" as="geometry">
            <mxPoint x="120.00206796384245" y="319.9969076310878" as="targetPoint" />
            <mxPoint as="offset" />
            <mxPoint x="155.8878096157226" y="257.3527829053816" as="sourcePoint" />
          </mxGeometry>
        </mxCell>
        <mxCell id="GYZ9MLqIJhaxATSJCkpH-52" value="" style="edgeStyle=none;rounded=0;sketch=0;orthogonalLoop=1;jettySize=auto;html=1;shadow=0;startArrow=none;startFill=0;endArrow=none;endFill=0;strokeWidth=1;fontSize=14;entryX=0.871;entryY=0.35;entryDx=0;entryDy=0;entryPerimeter=0;exitX=0.023;exitY=0.343;exitDx=0;exitDy=0;exitPerimeter=0;" parent="1" source="GYZ9MLqIJhaxATSJCkpH-37" target="GYZ9MLqIJhaxATSJCkpH-8" edge="1">
          <mxGeometry x="-0.0665" y="-7" relative="1" as="geometry">
            <mxPoint x="80.82000000000002" y="550" as="targetPoint" />
            <mxPoint as="offset" />
            <mxPoint x="176.84" y="643" as="sourcePoint" />
          </mxGeometry>
        </mxCell>
        <mxCell id="GYZ9MLqIJhaxATSJCkpH-54" value="" style="edgeStyle=none;rounded=0;sketch=0;orthogonalLoop=1;jettySize=auto;html=1;shadow=0;startArrow=none;startFill=0;endArrow=none;endFill=0;strokeWidth=1;fontSize=14;exitX=0;exitY=0.3333333333333333;exitDx=0;exitDy=0;exitPerimeter=0;" parent="1" source="GYZ9MLqIJhaxATSJCkpH-11" target="GYZ9MLqIJhaxATSJCkpH-20" edge="1">
          <mxGeometry x="-0.0665" y="-7" relative="1" as="geometry">
            <mxPoint x="610" y="283.5" as="targetPoint" />
            <mxPoint as="offset" />
            <mxPoint x="706.02" y="376.5" as="sourcePoint" />
          </mxGeometry>
        </mxCell>
      </root>
    </mxGraphModel>
  </diagram>
</mxfile>
